<mxfile host="app.diagrams.net" modified="2023-06-18T19:40:57.466Z" agent="Mozilla/5.0 (Windows NT 10.0; Win64; x64) AppleWebKit/537.36 (KHTML, like Gecko) Chrome/114.0.0.0 Safari/537.36 Edg/114.0.1823.43" etag="dFaoLcCIGZaRUWWN8mKD" version="21.5.0" type="device">
  <diagram name="Страница 1" id="az1gysKcP3N_YfgW6BbR">
    <mxGraphModel dx="836" dy="495" grid="1" gridSize="10" guides="1" tooltips="1" connect="1" arrows="1" fold="1" page="1" pageScale="1" pageWidth="827" pageHeight="1169" math="0" shadow="0">
      <root>
        <mxCell id="0" />
        <mxCell id="1" parent="0" />
        <mxCell id="x6giBed8Eq57TnZa8WMb-1" value="Администратор" style="shape=umlActor;verticalLabelPosition=bottom;verticalAlign=top;html=1;outlineConnect=0;" vertex="1" parent="1">
          <mxGeometry x="384" y="220" width="30" height="60" as="geometry" />
        </mxCell>
        <mxCell id="x6giBed8Eq57TnZa8WMb-5" value="" style="ellipse;whiteSpace=wrap;html=1;" vertex="1" parent="1">
          <mxGeometry x="540" y="80" width="110" height="40" as="geometry" />
        </mxCell>
        <mxCell id="x6giBed8Eq57TnZa8WMb-6" value="Изменение рейсов" style="text;html=1;strokeColor=none;fillColor=none;align=center;verticalAlign=middle;whiteSpace=wrap;rounded=0;" vertex="1" parent="1">
          <mxGeometry x="540" y="120" width="110" height="30" as="geometry" />
        </mxCell>
        <mxCell id="x6giBed8Eq57TnZa8WMb-7" value="" style="endArrow=classic;html=1;rounded=0;entryX=0;entryY=0.5;entryDx=0;entryDy=0;" edge="1" parent="1" target="x6giBed8Eq57TnZa8WMb-5">
          <mxGeometry width="50" height="50" relative="1" as="geometry">
            <mxPoint x="430" y="200" as="sourcePoint" />
            <mxPoint x="380" y="110" as="targetPoint" />
          </mxGeometry>
        </mxCell>
        <mxCell id="x6giBed8Eq57TnZa8WMb-9" value="" style="ellipse;whiteSpace=wrap;html=1;" vertex="1" parent="1">
          <mxGeometry x="343" y="80" width="110" height="40" as="geometry" />
        </mxCell>
        <mxCell id="x6giBed8Eq57TnZa8WMb-10" value="Просмотр билетов" style="text;html=1;strokeColor=none;fillColor=none;align=center;verticalAlign=middle;whiteSpace=wrap;rounded=0;" vertex="1" parent="1">
          <mxGeometry x="339" y="120" width="120" height="30" as="geometry" />
        </mxCell>
        <mxCell id="x6giBed8Eq57TnZa8WMb-12" value="" style="endArrow=classic;html=1;rounded=0;" edge="1" parent="1">
          <mxGeometry width="50" height="50" relative="1" as="geometry">
            <mxPoint x="400" y="210" as="sourcePoint" />
            <mxPoint x="400" y="160" as="targetPoint" />
          </mxGeometry>
        </mxCell>
        <mxCell id="x6giBed8Eq57TnZa8WMb-14" value="" style="ellipse;whiteSpace=wrap;html=1;" vertex="1" parent="1">
          <mxGeometry x="160" y="200" width="110" height="40" as="geometry" />
        </mxCell>
        <mxCell id="x6giBed8Eq57TnZa8WMb-15" value="Создание пользователей" style="text;html=1;strokeColor=none;fillColor=none;align=center;verticalAlign=middle;whiteSpace=wrap;rounded=0;" vertex="1" parent="1">
          <mxGeometry x="160" y="250" width="110" height="30" as="geometry" />
        </mxCell>
        <mxCell id="x6giBed8Eq57TnZa8WMb-16" value="" style="endArrow=classic;html=1;rounded=0;entryX=1;entryY=0.5;entryDx=0;entryDy=0;" edge="1" parent="1" target="x6giBed8Eq57TnZa8WMb-14">
          <mxGeometry width="50" height="50" relative="1" as="geometry">
            <mxPoint x="370" y="220" as="sourcePoint" />
            <mxPoint x="260" y="300" as="targetPoint" />
          </mxGeometry>
        </mxCell>
        <mxCell id="x6giBed8Eq57TnZa8WMb-44" value="" style="ellipse;whiteSpace=wrap;html=1;" vertex="1" parent="1">
          <mxGeometry x="160" y="80" width="110" height="40" as="geometry" />
        </mxCell>
        <mxCell id="x6giBed8Eq57TnZa8WMb-45" value="Изменение пользователей" style="text;html=1;strokeColor=none;fillColor=none;align=center;verticalAlign=middle;whiteSpace=wrap;rounded=0;" vertex="1" parent="1">
          <mxGeometry x="160" y="130" width="110" height="30" as="geometry" />
        </mxCell>
        <mxCell id="x6giBed8Eq57TnZa8WMb-46" value="" style="ellipse;whiteSpace=wrap;html=1;" vertex="1" parent="1">
          <mxGeometry x="540" y="200" width="110" height="40" as="geometry" />
        </mxCell>
        <mxCell id="x6giBed8Eq57TnZa8WMb-47" value="Создание рейсов" style="text;html=1;strokeColor=none;fillColor=none;align=center;verticalAlign=middle;whiteSpace=wrap;rounded=0;" vertex="1" parent="1">
          <mxGeometry x="540" y="250" width="110" height="30" as="geometry" />
        </mxCell>
        <mxCell id="x6giBed8Eq57TnZa8WMb-48" value="" style="ellipse;whiteSpace=wrap;html=1;" vertex="1" parent="1">
          <mxGeometry x="660" y="140" width="110" height="40" as="geometry" />
        </mxCell>
        <mxCell id="x6giBed8Eq57TnZa8WMb-49" value="Создание отчетов" style="text;html=1;strokeColor=none;fillColor=none;align=center;verticalAlign=middle;whiteSpace=wrap;rounded=0;" vertex="1" parent="1">
          <mxGeometry x="660" y="190" width="110" height="30" as="geometry" />
        </mxCell>
        <mxCell id="x6giBed8Eq57TnZa8WMb-50" value="" style="ellipse;whiteSpace=wrap;html=1;" vertex="1" parent="1">
          <mxGeometry x="40" y="140" width="110" height="40" as="geometry" />
        </mxCell>
        <mxCell id="x6giBed8Eq57TnZa8WMb-51" value="Изменение городов" style="text;html=1;strokeColor=none;fillColor=none;align=center;verticalAlign=middle;whiteSpace=wrap;rounded=0;" vertex="1" parent="1">
          <mxGeometry x="40" y="190" width="110" height="30" as="geometry" />
        </mxCell>
        <mxCell id="x6giBed8Eq57TnZa8WMb-52" value="" style="endArrow=classic;html=1;rounded=0;entryX=0.923;entryY=0.8;entryDx=0;entryDy=0;entryPerimeter=0;" edge="1" parent="1" target="x6giBed8Eq57TnZa8WMb-44">
          <mxGeometry width="50" height="50" relative="1" as="geometry">
            <mxPoint x="370" y="200" as="sourcePoint" />
            <mxPoint x="390" y="340" as="targetPoint" />
          </mxGeometry>
        </mxCell>
        <mxCell id="x6giBed8Eq57TnZa8WMb-53" value="" style="endArrow=classic;html=1;rounded=0;entryX=1;entryY=0.5;entryDx=0;entryDy=0;" edge="1" parent="1" target="x6giBed8Eq57TnZa8WMb-50">
          <mxGeometry width="50" height="50" relative="1" as="geometry">
            <mxPoint x="360" y="210" as="sourcePoint" />
            <mxPoint x="240" y="340" as="targetPoint" />
          </mxGeometry>
        </mxCell>
        <mxCell id="x6giBed8Eq57TnZa8WMb-54" value="" style="endArrow=classic;html=1;rounded=0;entryX=0;entryY=0.5;entryDx=0;entryDy=0;" edge="1" parent="1" target="x6giBed8Eq57TnZa8WMb-46">
          <mxGeometry width="50" height="50" relative="1" as="geometry">
            <mxPoint x="430" y="220" as="sourcePoint" />
            <mxPoint x="580" y="300" as="targetPoint" />
          </mxGeometry>
        </mxCell>
        <mxCell id="x6giBed8Eq57TnZa8WMb-55" value="" style="endArrow=classic;html=1;rounded=0;entryX=0;entryY=0.5;entryDx=0;entryDy=0;" edge="1" parent="1" target="x6giBed8Eq57TnZa8WMb-48">
          <mxGeometry width="50" height="50" relative="1" as="geometry">
            <mxPoint x="440" y="210" as="sourcePoint" />
            <mxPoint x="530" y="350" as="targetPoint" />
          </mxGeometry>
        </mxCell>
      </root>
    </mxGraphModel>
  </diagram>
</mxfile>
